<svg version="1.1" id="Layer_1" xmlns="http://www.w3.org/2000/svg" xmlns:xlink="http://www.w3.org/1999/xlink" x="0px" y="0px"
	 viewBox="12 488 1151 373.2" enable-background="new 12 488 1151 373.2" xml:space="preserve">
<g id="bg">
	<g id="upload_list_1_">
	</g>
</g>
<g id="Layer_3">
	<g id="upload_list">
	</g>
	<g id="accounts_list">
	</g>
	<g id="close_bar">
	</g>
	<g id="showing">
	</g>
	<g id="Inline_Bubble">
	</g>
	<g>
		<g>
			<path fill="#FFFFFF" d="M846.1,742.3c-36.1-21.2-49.6-32-49.6-41.5c0-10.8,10.4-18.5,27.1-18.5c14.9,0,36.6,6.3,59.5,21.2
				c0-40.2,0-40.2,0-40.2c-21.6-11.3-41.5-17.2-60.5-17.2c-41.5,0-68.1,21.2-68.1,56c0,55.5,96.6,70.8,96.6,99.3
				c0,13.5-11.7,20.8-26.7,23c-49.6-0.9-76.7-35.6-105.6-63.6c0-46.5,0-46.5,0-46.5c0-30.2-13.5-49.6-34.8-59.6
				c-11.3-5.9-24.8-8.6-39.7-8.6c-4.5,0-8.6,0.5-12.6,0.9c-22.1,2.3-39.7,10.4-53.3,24.4c-0.9,1.8-1.8,3.6-2.7,5.4
				c0,41.1,0,41.1,0,41.1c0.5,0,0.5,0.4,0.5,0.4c12.6-14.9,26.6-24.4,41.1-29.3c7.7-2.7,15.8-4.1,23.9-4.1c24.4,0,37,10.4,37,36.1
				c0,12.6,0,12.6,0,12.6c-0.5,0-20.3-13.1-51.9-6.3c-43.3,9.5-72.6,46.5-65.4,83c7.2,36.1,48.3,57.8,91.6,48.7
				c19.4-4.5,35.7-14,47.4-26.6c-4.5-4.1-9-8.6-12.6-12.2c-5.4-5.4-10.8-10.4-15.8-14.9c-6.3,6.8-15.4,12.2-27.1,14.9
				c-4.1,0.9-8.1,1.4-12.2,1.4c-16.7,0-30.2-8.1-32.5-19c-2.7-13.1,10.8-32.5,35.2-36.6c20.3-3.6,31.1,3.6,41.5,11.3
				c27.1,17.2,68.6,83.5,148.5,83c38.8-0.4,67.7-24.4,67.7-60.5C892.6,778.8,880.4,764.4,846.1,742.3"/>
			<polygon fill="#FFFFFF" points="1023,744.5 1116.9,651.6 1058.2,651.6 964.4,744.5 1077.6,856.4 1136.3,856.4 			"/>
			<path fill="#FFFFFF" d="M404.8,823.5c-6.3,0-13.5-1.4-19.4-6.3c-5.9-4.5-9.9-12.6-9.9-24.8c0-85.8,0-85.8,0-85.8
				c-41.1,0-41.1,0-41.1,0c0,88.9,0,88.9,0,88.9c0,19,5.9,34.7,16.7,46.5c11.3,11.3,28,18.5,50.1,18.5c5.4,0,11.7-0.9,18.5-2.7
				c7.2-1.4,14-3.6,20.8-6.3c0-37,0-37,0-37c-6.3,2.7-12.2,5.4-18.5,6.8C416.1,823.1,410.2,823.5,404.8,823.5"/>
			<path fill="#FFFFFF" d="M260.9,753.6c-9.5,9.5-19,18.9-29.3,27.5c33.8,75.3,33.8,75.3,33.8,75.3c47.4,0,47.4,0,47.4,0
				C264.9,749,264.9,749,264.9,749L260.9,753.6z"/>
			<path fill="#FFFFFF" d="M375.5,647.5c0-39.7,0-39.7,0-39.7c-41.1,0-41.1,0-41.1,0c0,39.7,0,39.7,0,39.7l0,0l0,0
				c-9.9,0.4-19.4,1.4-28.4,3.6c-9.5,1.8-18.5,5-28.4,9.5c-0.9,0.4-1.4,0.4-2.3,0.9c-0.4,0.4-1.4,0.9-1.8,0.9
				c-1.4,0.9-2.7,1.4-4,1.8c-1.4,0.9-4.1,2.3-4.1,2.3c-9,5.4-17.1,11.3-24.8,17.1c-0.9,1.4-2.2,2.3-3.2,3.2
				c-74.5-167-74.5-167-74.5-167C18.5,856.4,18.5,856.4,18.5,856.4c47.4,0,47.4,0,47.4,0c30.2-72.6,30.2-72.6,30.2-72.6
				c49.2-0.9,49.2-0.9,49.2-0.9c15.4-0.4,15.4-0.4,15.4-0.4c0.4,0,0.4,0,0.4,0c0.4,0,0.4,0,0.4,0c1.8,0,3.2,0,5,0
				c1.4-0.4,3.2-0.4,4.5-0.9h0.4c0.9,0,1.8,0,2.3-0.4c1.4,0,2.3,0,3.2-0.5c1.4,0,2.7-0.4,4.1-0.9c1.4-0.5,2.7-0.9,4.1-1.4
				c0.4,0,0.9,0,0.9,0c0.4-0.4,0.9-0.4,0.9-0.4c3.6-1.4,7.2-2.7,10.8-4.5c3.2-1.8,6.3-3.6,9-5.9c15.3-9.9,28.4-24.3,42-37.9
				c14-14,28-27.1,46-36.1c0.9-0.4,1.8-0.9,2.7-1.4c1.4-0.4,2.3-0.9,3.2-1.4c0.4,0,1.4-0.5,1.8-0.5c0.4-0.4,1.3-0.4,1.8-0.9
				c0.9-0.4,1.8-0.4,2.7-0.9c1.4-0.4,2.3-0.9,3.2-0.9c3.6-1.4,7.7-2.3,11.7-2.7c4.1-0.9,8.1-1.4,12.6-1.4c106,0,106,0,106,0
				c0-36.1,0-36.1,0-36.1L375.5,647.5L375.5,647.5L375.5,647.5z M183.7,734.2L183.7,734.2L183.7,734.2c-1.8,0.9-4.1,2.2-5.9,3.1
				c-2.3,0.9-4.1,1.8-6.3,2.7h-0.5c-1.8,0.4-3.6,0.9-5.9,1.4c-1.8,0.4-4.1,0.4-6.3,0.4c-13.5-0.4-13.5-0.4-13.5-0.4
				c-30.7-0.9-30.7-0.9-30.7-0.9c47.8-113.3,47.8-113.3,47.8-113.3c41.1,91.6,41.1,91.6,41.1,91.6c-0.5,0.4-0.9,0.9-1.4,1.4
				C196.3,725.6,190.5,730.1,183.7,734.2"/>
			<polygon fill="#FFFFFF" points="921.1,562.7 921.1,856.4 964.4,856.4 964.4,519.8 			"/>
			<polygon fill="#FFFFFF" points="416.1,567.6 375.5,607.8 483.3,607.8 483.3,856.4 528.5,856.4 528.5,607.8 636.3,607.8 
				636.3,567.6 			"/>
			<path fill="#FFFFFF" d="M1141.7,651.6c8.1,0,14.9,6.8,14.9,15.3c0,8.1-6.8,14.9-14.9,14.9c-8.6,0-15.4-6.8-15.4-14.9
				C1126.4,658.4,1133.1,651.6,1141.7,651.6L1141.7,651.6z M1141.3,654.7c-5.9,0-11.3,5.4-11.3,12.2c0,6.8,5.4,11.7,11.7,11.7
				c6.3,0.4,11.3-5,11.3-11.7s-5-12.2-11.3-12.2H1141.3z M1139,675.5c-3.6,0-3.6,0-3.6,0c0-16.7,0-16.7,0-16.7
				c1.4,0,2.7-0.5,5.4-0.5s4.5,0.5,5.9,1.4c0.9,0.9,1.4,1.8,1.4,3.6c0,1.8-1.4,3.6-3.2,4.1l0,0c1.4,0,2.3,1.4,2.7,4.1
				c0,2.7,0.5,3.6,0.9,4.1c-3.6,0-3.6,0-3.6,0c-0.4-0.4-0.9-2.3-1.4-4.5c0-1.8-1.4-2.3-3.2-2.3c-1.4,0-1.4,0-1.4,0L1139,675.5
				L1139,675.5z M1139,666c1.8,0,1.8,0,1.8,0c1.8,0,3.6-0.9,3.6-2.7c0-1.4-1.4-2.3-3.6-2.3c-0.9,0-1.4,0-1.8,0V666z"/>
		</g>
		<g>
			<g>
				<path fill="#231F20" d="M846.1,723.7c-36.1-21.2-49.6-32-49.6-41.5c0-10.8,10.4-18.5,27.1-18.5c14.9,0,36.6,6.3,59.5,21.2
					c0-40.2,0-40.2,0-40.2c-21.6-11.3-41.5-17.2-60.5-17.2c-41.5,0-68.1,21.2-68.1,56c0,55.5,96.6,70.8,96.6,99.3
					c0,13.5-11.7,20.8-26.7,23c-49.6-0.9-76.7-35.6-105.6-63.6c0-46.5,0-46.5,0-46.5c0-30.2-13.5-49.6-34.8-59.6
					c-11.3-5.9-24.8-8.6-39.7-8.6c-4.5,0-8.6,0.5-12.6,0.9c-22.1,2.3-39.7,10.4-53.3,24.4c-0.9,1.8-1.8,3.6-2.7,5.4
					c0,41.1,0,41.1,0,41.1c0.5,0,0.5,0.4,0.5,0.4c12.6-14.9,26.6-24.4,41.1-29.3c7.7-2.7,15.8-4.1,23.9-4.1c24.4,0,37,10.4,37,36.1
					c0,12.6,0,12.6,0,12.6c-0.5,0-20.3-13.1-51.9-6.3c-43.3,9.5-72.6,46.5-65.4,83c7.2,36.1,48.3,57.8,91.6,48.7
					c19.4-4.5,35.7-14,47.4-26.6c-4.5-4.1-9-8.6-12.6-12.2c-5.4-5.4-10.8-10.4-15.8-14.9c-6.3,6.8-15.4,12.2-27.1,14.9
					c-4.1,0.9-8.1,1.4-12.2,1.4c-16.7,0-30.2-8.1-32.5-19c-2.7-13.1,10.8-32.5,35.2-36.6c20.3-3.6,31.1,3.6,41.5,11.3
					c27.1,17.2,68.6,83.5,148.5,83c38.8-0.4,67.7-24.4,67.7-60.5C892.6,760.3,880.4,745.8,846.1,723.7"/>
				<polygon fill="#231F20" points="1023,726 1116.9,633 1058.2,633 964.4,726 1077.6,837.9 1136.3,837.9 				"/>
				<path fill="#FFB619" d="M404.8,805c-6.3,0-13.5-1.4-19.4-6.3c-5.9-4.5-9.9-12.6-9.9-24.8c0-85.8,0-85.8,0-85.8
					c-41.1,0-41.1,0-41.1,0c0,88.9,0,88.9,0,88.9c0,18.9,5.9,34.7,16.7,46.5c11.3,11.3,28,18.5,50.1,18.5c5.4,0,11.7-0.9,18.5-2.7
					c7.2-1.4,14-3.6,20.8-6.3c0-37,0-37,0-37c-6.3,2.7-12.2,5.4-18.5,6.8C416.1,804.5,410.2,805,404.8,805"/>
				<path fill="#FFB619" d="M260.9,735c-9.5,9.5-19,18.9-29.3,27.5c33.8,75.3,33.8,75.3,33.8,75.3c47.4,0,47.4,0,47.4,0
					c-47.8-107.4-47.8-107.4-47.8-107.4L260.9,735z"/>
				<path fill="#FFB619" d="M375.5,629c0-39.7,0-39.7,0-39.7c-41.1,0-41.1,0-41.1,0c0,39.7,0,39.7,0,39.7l0,0l0,0
					c-9.9,0.4-19.4,1.4-28.4,3.6c-9.5,1.8-18.5,5-28.4,9.5c-0.9,0.4-1.4,0.4-2.3,0.9c-0.4,0.4-1.4,0.9-1.8,0.9
					c-1.4,0.9-2.7,1.4-4,1.8c-1.4,0.9-4.1,2.3-4.1,2.3c-9,5.4-17.1,11.3-24.8,17.1c-0.9,1.4-2.2,2.3-3.2,3.2
					c-74.5-167-74.5-167-74.5-167C18.5,837.9,18.5,837.9,18.5,837.9c47.4,0,47.4,0,47.4,0c30.2-72.6,30.2-72.6,30.2-72.6
					c49.2-0.9,49.2-0.9,49.2-0.9c15.4-0.4,15.4-0.4,15.4-0.4c0.4,0,0.4,0,0.4,0c0.4,0,0.4,0,0.4,0c1.8,0,3.2,0,5,0
					c1.4-0.4,3.2-0.4,4.5-0.9h0.4c0.9,0,1.8,0,2.3-0.4c1.4,0,2.3,0,3.2-0.5c1.4,0,2.7-0.4,4.1-0.9c1.4-0.5,2.7-0.9,4.1-1.4
					c0.4,0,0.9,0,0.9,0c0.4-0.4,0.9-0.4,0.9-0.4c3.6-1.4,7.2-2.7,10.8-4.5c3.2-1.8,6.3-3.6,9-5.9c15.3-9.9,28.4-24.3,42-37.9
					c14-14,28-27.1,46-36.1c0.9-0.4,1.8-0.9,2.7-1.4c1.4-0.4,2.3-0.9,3.2-1.4c0.4,0,1.4-0.5,1.8-0.5c0.4-0.4,1.3-0.4,1.8-0.9
					c0.9-0.4,1.8-0.4,2.7-0.9c1.4-0.4,2.3-0.9,3.2-0.9c3.6-1.4,7.7-2.3,11.7-2.7c4.1-0.9,8.1-1.4,12.6-1.4c106,0,106,0,106,0
					c0-36.1,0-36.1,0-36.1L375.5,629z M183.7,715.6L183.7,715.6L183.7,715.6c-1.8,0.9-4.1,2.2-5.9,3.1c-2.3,0.9-4.1,1.8-6.3,2.7
					h-0.5c-1.8,0.4-3.6,0.9-5.9,1.4c-1.8,0.4-4.1,0.4-6.3,0.4c-13.5-0.4-13.5-0.4-13.5-0.4c-30.7-0.9-30.7-0.9-30.7-0.9
					c47.8-113.3,47.8-113.3,47.8-113.3c41.1,91.6,41.1,91.6,41.1,91.6c-0.5,0.4-0.9,0.9-1.4,1.4C196.3,707,190.5,711.5,183.7,715.6"
					/>
				<polygon fill="#231F20" points="921.1,544.2 921.1,837.9 964.4,837.9 964.4,501.3 				"/>
				<polygon fill="#231F20" points="416.1,549.1 375.5,589.3 483.3,589.3 483.3,837.9 528.5,837.9 528.5,589.3 636.3,589.3 
					636.3,549.1 				"/>
				<path fill="#231F20" d="M1141.7,633c8.1,0,14.9,6.8,14.9,15.3c0,8.1-6.8,14.9-14.9,14.9c-8.6,0-15.4-6.8-15.4-14.9
					C1126.4,639.8,1133.1,633,1141.7,633L1141.7,633z M1141.3,636.2c-5.9,0-11.3,5.4-11.3,12.2s5.4,11.7,11.7,11.7
					c6.3,0.4,11.3-5,11.3-11.7s-5-12.2-11.3-12.2H1141.3z M1139,656.9c-3.6,0-3.6,0-3.6,0c0-16.7,0-16.7,0-16.7
					c1.4,0,2.7-0.5,5.4-0.5s4.5,0.5,5.9,1.4c0.9,0.9,1.4,1.8,1.4,3.6c0,1.8-1.4,3.6-3.2,4.1l0,0c1.4,0,2.3,1.4,2.7,4.1
					c0,2.7,0.5,3.6,0.9,4.1c-3.6,0-3.6,0-3.6,0c-0.4-0.4-0.9-2.3-1.4-4.5c0-1.8-1.4-2.3-3.2-2.3c-1.4,0-1.4,0-1.4,0L1139,656.9
					L1139,656.9z M1139,647.5c1.8,0,1.8,0,1.8,0c1.8,0,3.6-0.9,3.6-2.7c0-1.4-1.4-2.3-3.6-2.3c-0.9,0-1.4,0-1.8,0V647.5z"/>
			</g>
		</g>
	</g>
</g>
</svg>